HIERARCHY
ROOT Hips
{
  OFFSET 48.1186 84.1951 7.46212
  CHANNELS 6 Xposition Yposition Zposition Zrotation Xrotation Yrotation
  JOINT spine
  {
    OFFSET 0 6.24479 0.359107
    CHANNELS 3 Zrotation Xrotation Yrotation
    JOINT spine1
    {
      OFFSET 0 9.06941 0
      CHANNELS 3 Zrotation Xrotation Yrotation
      JOINT spine2
      {
        OFFSET 0 8.69014 0
        CHANNELS 3 Zrotation Xrotation Yrotation
        JOINT Neck
        {
          OFFSET 0 22.3112 1.06372
          CHANNELS 3 Zrotation Xrotation Yrotation
          JOINT Head
          {
            OFFSET 0 6.74081 0
            CHANNELS 3 Zrotation Xrotation Yrotation
            End Site
            {
              OFFSET 0 16.3165 -5.38097
            }
          }
        }
        JOINT RightShoulder
        {
          OFFSET -3.65916 9.38468 -0.509514
          CHANNELS 3 Zrotation Xrotation Yrotation
          JOINT RightArm
          {
            OFFSET 0 12.3089 0
            CHANNELS 3 Zrotation Xrotation Yrotation
            JOINT RightArmRoll
            {
              OFFSET 0 6.21375 0
              CHANNELS 3 Zrotation Xrotation Yrotation
              JOINT RightForeArm
              {
                OFFSET 0 18.0985 0
                CHANNELS 3 Zrotation Xrotation Yrotation
                JOINT RightForeArmRoll
                {
                  OFFSET 0 6.97279 0
                  CHANNELS 3 Zrotation Xrotation Yrotation
                  JOINT RightHand
                  {
                    OFFSET 0 13.9929 0
                    CHANNELS 3 Zrotation Xrotation Yrotation
                    End Site
                    {
                      OFFSET 0 0 0
                    }
                  }
                }
              }
            }
          }
        }
        JOINT LeftShoulder
        {
          OFFSET 3.65916 9.38468 -0.509514
          CHANNELS 3 Zrotation Xrotation Yrotation
          JOINT LeftArm
          {
            OFFSET 0 12.3089 0
            CHANNELS 3 Zrotation Xrotation Yrotation
            JOINT LeftArmRoll
            {
              OFFSET 0 6.21375 0
              CHANNELS 3 Zrotation Xrotation Yrotation
              JOINT LeftForeArm
              {
                OFFSET 0 18.0985 0
                CHANNELS 3 Zrotation Xrotation Yrotation
                JOINT LeftForeArmRoll
                {
                  OFFSET 0 6.9728 0
                  CHANNELS 3 Zrotation Xrotation Yrotation
                  JOINT LeftHand
                  {
                    OFFSET 0 13.9929 0
                    CHANNELS 3 Zrotation Xrotation Yrotation
                    End Site
                    {
                      OFFSET 0 0 0
                    }
                  }
                }
              }
            }
          }
        }
      }
    }
  }
  JOINT RightUpLeg
  {
    OFFSET -5.53515 -1.015 -0.851454
    CHANNELS 3 Zrotation Xrotation Yrotation
    JOINT RightUpLegRoll
    {
      OFFSET 0 16.4075 0
      CHANNELS 3 Zrotation Xrotation Yrotation
      JOINT RightLeg
      {
        OFFSET 0 -20.3181 0
        CHANNELS 3 Zrotation Xrotation Yrotation
        JOINT RightLegRoll
        {
          OFFSET 0 20.3846 0
          CHANNELS 3 Zrotation Xrotation Yrotation
          JOINT RightFoot
          {
            OFFSET 0 16.9668 0
            CHANNELS 3 Zrotation Xrotation Yrotation
            JOINT RightToeBase
            {
              OFFSET 0 14.1834 0
              CHANNELS 3 Zrotation Xrotation Yrotation
              End Site
              {
                OFFSET 0.0060118 6.8689 -0.791746
              }
            }
          }
        }
      }
    }
  }
  JOINT LeftUpLeg
  {
    OFFSET 5.53515 -1.015 -0.851454
    CHANNELS 3 Zrotation Xrotation Yrotation
    JOINT LeftUpLegRoll
    {
      OFFSET 0 16.4076 0
      CHANNELS 3 Zrotation Xrotation Yrotation
      JOINT LeftLeg
      {
        OFFSET 0 20.3181 0
        CHANNELS 3 Zrotation Xrotation Yrotation
        JOINT LeftLegRoll
        {
          OFFSET 0 20.5731 0
          CHANNELS 3 Zrotation Xrotation Yrotation
          JOINT LeftFoot
          {
            OFFSET 0 16.7783 0
            CHANNELS 3 Zrotation Xrotation Yrotation
            JOINT LeftToeBase
            {
              OFFSET 0 14.1834 0
              CHANNELS 3 Zrotation Xrotation Yrotation
              End Site
              {
                OFFSET -0.0269423 6.8689 -0.791746
              }
            }
          }
        }
      }
    }
  }
}
MOTION
Frames: 11
Frame Time: 0.00208333
46.0302 83.9822 1.79846 0.410263 0.439885 -3.33484 -0.228185 -1.36762 -0.0396494 -0.47251 1.26764 -0.0464551 -0.472287 2.91268 -0.0385645 2.27543 4.37079 0.205888 -0.690709 2.44965 0.740113 68.4832 -1.32911 -1.76979 104.386 10.4214 14.4701 7.55382e-015 -5.56597e-015 3.18055e-015 7.17316 3.95133 -0.881058 -4.21259e-006 3.75288e-006 -3 8.02922 -4.95147 0.697675 -60.1575 -9.54994 5.9435 -112.088 3.41249 -12.0519 -6.47846e-006 6.478e-007 -1.24501e-007 -7.75101 20.5975 2.02069 4.84002e-006 -2.45043e-006 3 -8.02923 -4.95154 -0.697715 174.404 7.16186 2.95453 180 7.01598e-015 179.174 177.279 12.0574 179.413 1.37099e-006 -3.52311e-006 0.026784 -15.9311 68.4786 19.8758 8.13519 25.2327 -3.48718 -176.057 -0.124299 -2.85516 4.54188e-006 -4.6773e-006 -1.07299 -0.866732 -12.3519 0.678024 -1.64292e-007 1.71522e-006 -0.523523 26.8256 75.0105 -28.131 -8.14227 25.4585 3.18302 
46.0299 83.9737 1.78413 0.410697 0.456366 -3.31186 -0.227869 -1.36629 -0.0396436 -0.470826 1.2703 -0.0465112 -0.470601 2.91533 -0.0386488 2.27306 4.3687 0.199853 -0.649387 2.42183 0.736143 68.4608 -1.31061 -1.75806 104.359 10.2767 14.6042 -1.98785e-015 7.95139e-016 -0 7.10144 3.92366 -0.881382 -4.21259e-006 3.75288e-006 -3 8.02922 -4.95147 0.697675 -60.1777 -9.54312 5.9395 -112.051 3.39128 -12.2251 -6.47846e-006 6.478e-007 -1.24501e-007 -7.61966 20.3765 1.98001 4.84002e-006 -2.45043e-006 3 -8.02923 -4.95154 -0.697715 174.406 7.17801 2.95379 180 7.01598e-015 179.174 177.276 12.074 179.414 1.37099e-006 -3.52311e-006 0.0267934 -15.9488 68.4948 19.8892 8.13519 25.2327 -3.48718 -176.048 -0.102512 -2.86325 4.54188e-006 -4.6773e-006 -1.07303 -0.876119 -12.3654 0.676433 -1.64292e-007 1.71522e-006 -0.522786 26.8318 75.0139 -28.1385 -8.14234 25.4597 3.18151 
46.0341 83.9731 1.80666 0.411245 0.472674 -3.28914 -0.227533 -1.36497 -0.0396406 -0.469094 1.27293 -0.0465587 -0.468869 2.91797 -0.0387254 2.26952 4.3673 0.193962 -0.607221 2.39354 0.732089 68.4386 -1.29112 -1.74584 104.331 10.132 14.7424 1.0138e-014 -2.38542e-015 6.36111e-015 7.0266 3.89306 -0.881609 -4.21259e-006 3.75288e-006 -3 8.02922 -4.95147 0.697675 -60.1985 -9.53636 5.93554 -112.012 3.37004 -12.3994 -6.47846e-006 6.478e-007 -1.24501e-007 -7.48835 20.1532 1.939 4.84002e-006 -2.45043e-006 3 -8.02923 -4.95154 -0.697715 174.409 7.1942 2.95302 180 7.01598e-015 179.174 177.273 12.0909 179.415 1.37099e-006 -3.52311e-006 0.0268075 -15.9665 68.5112 19.9028 8.13519 25.2327 -3.48718 -176.039 -0.0810372 -2.87173 4.54188e-006 -4.6773e-006 -1.07308 -0.886023 -12.3793 0.674743 -1.64292e-007 1.71522e-006 -0.521996 26.838 75.0171 -28.146 -8.14243 25.461 3.17977 
46.0314 83.9724 1.80774 0.411869 0.488861 -3.26662 -0.227183 -1.36366 -0.0396397 -0.46733 1.27556 -0.0466003 -0.467103 2.9206 -0.0387966 2.26515 4.36638 0.188171 -0.564467 2.36491 0.727977 68.4164 -1.27093 -1.73327 104.304 9.98724 14.8834 -4.17448e-015 0 -0 6.94958 3.86043 -0.881768 -4.21259e-006 3.75288e-006 -3 8.02922 -4.95147 0.697675 -60.2197 -9.52965 5.93161 -111.974 3.34878 -12.5746 -6.47846e-006 6.478e-007 -1.24501e-007 -7.35719 19.9282 1.89779 4.84002e-006 -2.45043e-006 3 -8.02923 -4.95154 -0.697715 174.411 7.21039 2.95224 180 7.01598e-015 179.174 177.271 12.108 179.416 1.37099e-006 -3.52311e-006 0.0268248 -15.9842 68.5276 19.9164 8.13519 25.2327 -3.48718 -176.03 -0.0597801 -2.88049 4.54188e-006 -4.6773e-006 -1.07314 -0.896287 -12.3933 0.672983 -1.64292e-007 1.71522e-006 -0.521167 26.8441 75.0203 -28.1535 -8.14253 25.4624 3.17785 
46.0204 83.9811 1.81752 0.412532 0.504978 -3.2442 -0.226825 -1.36235 -0.0396399 -0.465546 1.27817 -0.0466385 -0.465319 2.92321 -0.0388647 2.2603 4.36574 0.182438 -0.521378 2.33609 0.723831 68.3944 -1.25034 -1.7205 104.277 9.84258 15.0261 6.36111e-015 -3.97569e-015 -0 6.87132 3.82662 -0.881888 -4.21259e-006 3.75288e-006 -3 8.02922 -4.95147 0.697675 -60.2412 -9.52296 5.9277 -111.935 3.3275 -12.7502 -6.47846e-006 6.478e-007 -1.24501e-007 -7.22626 19.7023 1.85654 4.84002e-006 -2.45043e-006 3 -8.02923 -4.95154 -0.697715 174.414 7.2266 2.95145 180 7.01598e-015 179.174 177.268 12.1252 179.417 1.37099e-006 -3.52311e-006 0.0268439 -16.0019 68.5441 19.9301 8.13519 25.2327 -3.48718 -176.02 -0.0386477 -2.88941 4.54188e-006 -4.6773e-006 -1.07321 -0.906759 -12.4075 0.671184 -1.64292e-007 1.71522e-006 -0.520317 26.8501 75.0235 -28.1609 -8.14263 25.4639 3.17585 
46.0212 83.9778 1.82093 0.413195 0.521078 -3.2218 -0.226464 -1.36104 -0.0396405 -0.463758 1.28078 -0.0466759 -0.463529 2.92583 -0.0389321 2.25534 4.36516 0.176719 -0.478209 2.30723 0.719676 68.3723 -1.22965 -1.70769 104.251 9.69802 15.1691 -1.11319e-014 1.59028e-015 -0 6.79274 3.79252 -0.881999 -4.21259e-006 3.75288e-006 -3 8.02922 -4.95147 0.697675 -60.2627 -9.51628 5.9238 -111.896 3.30622 -12.9259 -6.47846e-006 6.478e-007 -1.24501e-007 -7.09565 19.4761 1.81539 4.84002e-006 -2.45043e-006 3 -8.02923 -4.95154 -0.697715 174.416 7.24281 2.95065 180 7.01598e-015 179.174 177.265 12.1425 179.418 1.37099e-006 -3.52311e-006 0.0268635 -16.0196 68.5605 19.9438 8.13519 25.2327 -3.48718 -176.011 -0.0175468 -2.89837 4.54188e-006 -4.6773e-006 -1.07328 -0.917283 -12.4217 0.669374 -1.64292e-007 1.71522e-006 -0.519461 26.8562 75.0267 -28.1684 -8.14273 25.4654 3.17381 
46.0312 83.9738 1.82795 0.413819 0.537214 -3.19935 -0.226108 -1.35973 -0.0396404 -0.461979 1.2834 -0.0467149 -0.46175 2.92845 -0.039001 2.25062 4.36445 0.170971 -0.435213 2.27846 0.715539 68.3502 -1.20916 -1.69497 104.225 9.55362 15.3113 -1.19271e-015 7.95139e-016 6.36111e-015 6.71479 3.75901 -0.882129 -4.21259e-006 3.75288e-006 -3 8.02922 -4.95147 0.697675 -60.2841 -9.50958 5.91989 -111.857 3.28494 -13.1014 -6.47846e-006 6.478e-007 -1.24501e-007 -6.96543 19.2504 1.77447 4.84002e-006 -2.45043e-006 3 -8.02923 -4.95154 -0.697715 174.418 7.25901 2.94987 180 7.01598e-015 179.174 177.263 12.1597 179.419 1.37099e-006 -3.52311e-006 0.0268822 -16.0374 68.577 19.9575 8.13519 25.2327 -3.48718 -176.002 0.00361601 -2.90725 4.54188e-006 -4.6773e-006 -1.07335 -0.927704 -12.4359 0.667585 -1.64292e-007 1.71522e-006 -0.518616 26.8623 75.0299 -28.1759 -8.14283 25.4669 3.17183 
46.0258 83.9764 1.83948 0.414367 0.553438 -3.17677 -0.225762 -1.35842 -0.0396389 -0.460224 1.28603 -0.0467582 -0.459993 2.93107 -0.0390737 2.24648 4.36339 0.165151 -0.392644 2.24993 0.711445 68.328 -1.18917 -1.68251 104.201 9.40943 15.4514 -8.34896e-015 0 3.18055e-015 6.63839 3.72696 -0.882309 -4.21259e-006 3.75288e-006 -3 8.02922 -4.95147 0.697675 -60.3052 -9.50285 5.91595 -111.819 3.26367 -13.2763 -6.47846e-006 6.478e-007 -1.24501e-007 -6.83569 19.0258 1.73393 4.84002e-006 -2.45043e-006 3 -8.02923 -4.95154 -0.697715 174.421 7.27521 2.94909 180 7.01598e-015 179.174 177.26 12.1767 179.42 1.37099e-006 -3.52311e-006 0.0268985 -16.0552 68.5934 19.9712 8.13519 25.2327 -3.48718 -175.993 0.024934 -2.91593 4.54188e-006 -4.6773e-006 -1.07341 -0.93787 -12.4499 0.665844 -1.64292e-007 1.71522e-006 -0.517798 26.8684 75.0332 -28.1833 -8.14293 25.4683 3.16996 
46.0245 83.9714 1.84007 0.4148 0.569802 -3.15398 -0.225432 -1.3571 -0.0396351 -0.458507 1.28867 -0.0468083 -0.458275 2.93372 -0.0391526 2.24329 4.36178 0.159217 -0.350757 2.22178 0.707418 68.3057 -1.16998 -1.67043 104.177 9.26548 15.5882 1.43125e-014 -4.77083e-015 3.18055e-015 6.56448 3.69724 -0.882566 -4.21259e-006 3.75288e-006 -3 8.02922 -4.95147 0.697675 -60.3259 -9.49608 5.91198 -111.782 3.24241 -13.4503 -6.47846e-006 6.478e-007 -1.24501e-007 -6.7065 18.8031 1.69391 4.84002e-006 -2.45043e-006 3 -8.02923 -4.95154 -0.697715 174.423 7.29138 2.94833 180 7.01598e-015 179.174 177.257 12.1935 179.421 1.37099e-006 -3.52311e-006 0.0269112 -16.073 68.6097 19.9849 8.13519 25.2327 -3.48718 -175.984 0.0465003 -2.92429 4.54188e-006 -4.6773e-006 -1.07346 -0.947623 -12.4636 0.664183 -1.64292e-007 1.71522e-006 -0.517024 26.8746 75.0364 -28.1908 -8.14301 25.4696 3.16829 
46.0226 83.9716 1.84613 0.415079 0.586359 -3.13089 -0.225124 -1.35577 -0.0396281 -0.456842 1.29133 -0.0468678 -0.456609 2.93638 -0.03924 2.24139 4.35942 0.153124 -0.309805 2.19415 0.703485 68.2832 -1.15188 -1.65891 104.155 9.12183 15.7205 2.78299e-015 -3.97569e-015 9.54166e-015 6.494 3.67073 -0.882931 -4.21259e-006 3.75288e-006 -3 8.02922 -4.95147 0.697675 -60.3458 -9.48923 5.90796 -111.746 3.22117 -13.6229 -6.47846e-006 6.478e-007 -1.24501e-007 -6.57792 18.5829 1.65455 4.84002e-006 -2.45043e-006 3 -8.02923 -4.95154 -0.697715 174.426 7.30753 2.9476 180 7.01598e-015 179.174 177.254 12.21 179.422 1.37099e-006 -3.52311e-006 0.0269188 -16.0909 68.6259 19.9984 8.13519 25.2327 -3.48718 -175.975 0.0684085 -2.93223 4.54188e-006 -4.6773e-006 -1.07349 -0.956811 -12.477 0.662631 -1.64292e-007 1.71522e-006 -0.516309 26.8809 75.0398 -28.1983 -8.14308 25.4706 3.16688 
46.0241 83.974 1.84768 0.415165 0.60316 -3.10743 -0.224844 -1.35442 -0.039617 -0.455243 1.29402 -0.0469392 -0.455008 2.93907 -0.0393382 2.24115 4.35609 0.146831 -0.270042 2.1672 0.699671 68.2604 -1.13518 -1.64807 104.134 8.97851 15.847 1.03368e-014 -5.96354e-015 6.36111e-015 6.42787 3.64831 -0.883432 -4.21259e-006 3.75288e-006 -3 8.02922 -4.95147 0.697675 -60.3649 -9.48229 5.90388 -111.712 3.19996 -13.7939 -6.47846e-006 6.478e-007 -1.24501e-007 -6.45002 18.366 1.61597 4.84002e-006 -2.45043e-006 3 -8.02923 -4.95154 -0.697715 174.429 7.32365 2.9469 180 7.01598e-015 179.174 177.251 12.226 179.423 1.37099e-006 -3.52311e-006 0.02692 -16.1088 68.6419 20.0118 8.13519 25.2327 -3.48718 -175.966 0.0907516 -2.93961 4.54188e-006 -4.6773e-006 -1.07349 -0.965278 -12.4898 0.661217 -1.64292e-007 1.71522e-006 -0.515671 26.8874 75.0432 -28.2059 -8.14314 25.4714 3.1658 
